<svg xmlns="http://www.w3.org/2000/svg" xmlns:xlink="http://www.w3.org/1999/xlink" xmlns:serif="http://www.serif.com/" viewBox="0 0 64 65" version="1.1" xml:space="preserve" style="" x="0px" y="0px" fill-rule="evenodd" fill="#fff" clip-rule="evenodd" stroke-linejoin="round" stroke-miterlimit="2"><g transform="matrix(2.98506,0,0,2.98506,-57.5261,-82.9248)"><path d="M34.771,30.259C34.686,29.847 34.87,29.426 35.231,29.21C35.592,28.994 36.05,29.03 36.373,29.3C38.592,31.337 40,34.255 40,37.5C40,43.571 35.071,48.5 29,48.5C25.755,48.5 22.837,47.092 20.823,44.854C20.562,44.541 20.527,44.097 20.737,43.747C20.946,43.397 21.354,43.218 21.753,43.3C22.483,43.421 23.232,43.5 24,43.5C30.071,43.5 35,38.571 35,32.5C35,31.732 34.921,30.983 34.771,30.259Z"/></g><g transform="matrix(4.53795,4.53795,-4.53795,4.53795,29.935,-190.892)"><path d="M22.742,22.387C22.767,22.35 22.762,22.301 22.73,22.27C22.699,22.238 22.65,22.233 22.613,22.258C22.509,22.328 22.392,22.406 22.274,22.484C21.805,22.796 21.195,22.796 20.726,22.484C20.608,22.406 20.491,22.328 20.387,22.258C20.35,22.233 20.301,22.238 20.27,22.27C20.238,22.301 20.233,22.35 20.258,22.387C20.328,22.491 20.406,22.608 20.484,22.726C20.796,23.195 20.796,23.805 20.484,24.274C20.406,24.392 20.328,24.509 20.258,24.613C20.233,24.65 20.238,24.699 20.27,24.73C20.301,24.762 20.35,24.767 20.387,24.742C20.491,24.672 20.608,24.594 20.726,24.516C21.195,24.204 21.805,24.204 22.274,24.516C22.392,24.594 22.509,24.672 22.613,24.742C22.65,24.767 22.699,24.762 22.73,24.73C22.762,24.699 22.767,24.65 22.742,24.613C22.672,24.509 22.594,24.392 22.516,24.274C22.204,23.805 22.204,23.195 22.516,22.726C22.594,22.608 22.672,22.491 22.742,22.387Z"/></g><g transform="matrix(2.81434,-2.81434,2.81434,2.81434,-118.526,20.3755)"><path d="M22.584,22.624C22.624,22.565 22.616,22.485 22.565,22.435C22.515,22.384 22.435,22.376 22.376,22.416C22.221,22.519 22.058,22.628 21.916,22.723C21.664,22.891 21.336,22.891 21.084,22.723C20.942,22.628 20.779,22.519 20.624,22.416C20.565,22.376 20.485,22.384 20.435,22.435C20.384,22.485 20.376,22.565 20.416,22.624C20.519,22.779 20.628,22.942 20.723,23.084C20.891,23.336 20.891,23.664 20.723,23.916C20.628,24.058 20.519,24.221 20.416,24.376C20.376,24.435 20.384,24.515 20.435,24.565C20.485,24.616 20.565,24.624 20.624,24.584C20.779,24.481 20.942,24.372 21.084,24.277C21.336,24.109 21.664,24.109 21.916,24.277C22.058,24.372 22.221,24.481 22.376,24.584C22.435,24.624 22.515,24.616 22.565,24.565C22.616,24.515 22.624,24.435 22.584,24.376C22.481,24.221 22.372,24.058 22.277,23.916C22.109,23.664 22.109,23.336 22.277,23.084C22.372,22.942 22.481,22.779 22.584,22.624Z"/></g></svg>