<svg width="46" height="45" viewBox="0 0 46 45" fill="none" xmlns="http://www.w3.org/2000/svg">
<path d="M15.328 0.519989C20.064 0.519989 24.2027 1.43732 27.744 3.27199C31.328 5.06399 34.08 7.66666 36 11.08C37.9627 14.4507 38.944 18.3973 38.944 22.92C38.944 27.4427 37.9627 31.368 36 34.696C34.08 38.024 31.328 40.584 27.744 42.376C24.2027 44.1253 20.064 45 15.328 45H0.800003V0.519989H15.328ZM15.328 39.048C20.5333 39.048 24.5227 37.64 27.296 34.824C30.0693 32.008 31.456 28.04 31.456 22.92C31.456 17.7573 30.0693 13.7253 27.296 10.824C24.5227 7.92266 20.5333 6.47199 15.328 6.47199H8.096V39.048H15.328Z" fill="rgb(63 63 70)"/>
<path d="M22.328 0.519989C27.064 0.519989 31.2027 1.43732 34.744 3.27199C38.328 5.06399 41.08 7.66666 43 11.08C44.9627 14.4507 45.944 18.3973 45.944 22.92C45.944 27.4427 44.9627 31.368 43 34.696C41.08 38.024 38.328 40.584 34.744 42.376C31.2027 44.1253 27.064 45 22.328 45H7.8V0.519989H22.328ZM22.328 39.048C27.5333 39.048 31.5227 37.64 34.296 34.824C37.0693 32.008 38.456 28.04 38.456 22.92C38.456 17.7573 37.0693 13.7253 34.296 10.824C31.5227 7.92266 27.5333 6.47199 22.328 6.47199H15.096V39.048H22.328Z" fill="#0D99FF"/>
</svg>
