<svg xmlns="http://www.w3.org/2000/svg" width="36" height="36" fill="none" viewBox="0 0 314 314"><mask id="mask0_0_43" width="314" height="314" x="0" y="0" maskUnits="userSpaceOnUse" style="mask-type: alpha;"><path fill="#000" d="M157 314c86.709 0 157-70.291 157-157S243.709 0 157 0 0 70.291 0 157s70.291 157 157 157z"></path></mask><g mask="url(#mask0_0_43)"><path fill="#000" d="M157 314c86.709 0 157-70.291 157-157S243.709 0 157 0 0 70.291 0 157s70.291 157 157 157z"></path><path fill="url(#paint0_linear_0_43)" d="M260.808 274.785L120.614 94.2H94.2v125.548h21.132v-98.712L244.22 287.563a157.495 157.495 0 0016.588-12.778z"></path><path fill="url(#paint1_linear_0_43)" d="M221.544 94.2h-20.933v125.6h20.933V94.2z"></path></g><defs><linearGradient id="paint0_linear_0_43" x1="190.144" x2="252.072" y1="203.228" y2="279.983" gradientUnits="userSpaceOnUse"><stop stop-color="#fff"></stop><stop offset="1" stop-color="#fff" stop-opacity="0"></stop></linearGradient><linearGradient id="paint1_linear_0_43" x1="211.078" x2="210.727" y1="94.2" y2="186.437" gradientUnits="userSpaceOnUse"><stop stop-color="#fff"></stop><stop offset="1" stop-color="#fff" stop-opacity="0"></stop></linearGradient></defs></svg>